<svg xmlns="http://www.w3.org/2000/svg" viewBox="0 0 1200 900" width="1200" height="900"><defs><linearGradient id="sky" x1="0" y1="0" x2="0" y2="1"><stop offset="0" stop-color="#150d22"/><stop offset="1" stop-color="#3a1b33"/></linearGradient><radialGradient id="lamp" cx="0.5" cy="0.5" r="0.7"><stop offset="0" stop-color="#ffcf6ecc"/><stop offset="1" stop-color="#ffcf6e00"/></radialGradient></defs><rect width="1200" height="900" fill="url(#sky)"/><polygon points="0,0 300,0 380,900 0,900" fill="#0e0819"/><polygon points="1200,0 900,0 820,900 1200,900" fill="#0e0819"/><rect x="380" y="620" width="440" height="280" fill="#1b1226" /><circle cx="330" cy="180" r="120" fill="url(#lamp)"/><ellipse cx="330" cy="180" rx="34" ry="46" fill="#e8483f"/><ellipse cx="330" cy="180" rx="34" ry="46" fill="#ffd07a" opacity=".55"/><rect x="294" y="128" width="72" height="9" rx="4" fill="#2b1a1a"/><rect x="294" y="224" width="72" height="9" rx="4" fill="#2b1a1a"/><circle cx="420" cy="300" r="120" fill="url(#lamp)"/><ellipse cx="420" cy="300" rx="34" ry="46" fill="#e8483f"/><ellipse cx="420" cy="300" rx="34" ry="46" fill="#ffd07a" opacity=".55"/><rect x="384" y="248" width="72" height="9" rx="4" fill="#2b1a1a"/><rect x="384" y="344" width="72" height="9" rx="4" fill="#2b1a1a"/><circle cx="360" cy="430" r="120" fill="url(#lamp)"/><ellipse cx="360" cy="430" rx="34" ry="46" fill="#e8483f"/><ellipse cx="360" cy="430" rx="34" ry="46" fill="#ffd07a" opacity=".55"/><rect x="324" y="378" width="72" height="9" rx="4" fill="#2b1a1a"/><rect x="324" y="474" width="72" height="9" rx="4" fill="#2b1a1a"/><circle cx="470" cy="540" r="120" fill="url(#lamp)"/><ellipse cx="470" cy="540" rx="34" ry="46" fill="#e8483f"/><ellipse cx="470" cy="540" rx="34" ry="46" fill="#ffd07a" opacity=".55"/><rect x="434" y="488" width="72" height="9" rx="4" fill="#2b1a1a"/><rect x="434" y="584" width="72" height="9" rx="4" fill="#2b1a1a"/><circle cx="870" cy="180" r="120" fill="url(#lamp)"/><ellipse cx="870" cy="180" rx="34" ry="46" fill="#e8483f"/><ellipse cx="870" cy="180" rx="34" ry="46" fill="#ffd07a" opacity=".55"/><rect x="834" y="128" width="72" height="9" rx="4" fill="#2b1a1a"/><rect x="834" y="224" width="72" height="9" rx="4" fill="#2b1a1a"/><circle cx="790" cy="300" r="120" fill="url(#lamp)"/><ellipse cx="790" cy="300" rx="34" ry="46" fill="#e8483f"/><ellipse cx="790" cy="300" rx="34" ry="46" fill="#ffd07a" opacity=".55"/><rect x="754" y="248" width="72" height="9" rx="4" fill="#2b1a1a"/><rect x="754" y="344" width="72" height="9" rx="4" fill="#2b1a1a"/><circle cx="840" cy="430" r="120" fill="url(#lamp)"/><ellipse cx="840" cy="430" rx="34" ry="46" fill="#e8483f"/><ellipse cx="840" cy="430" rx="34" ry="46" fill="#ffd07a" opacity=".55"/><rect x="804" y="378" width="72" height="9" rx="4" fill="#2b1a1a"/><rect x="804" y="474" width="72" height="9" rx="4" fill="#2b1a1a"/><circle cx="740" cy="540" r="120" fill="url(#lamp)"/><ellipse cx="740" cy="540" rx="34" ry="46" fill="#e8483f"/><ellipse cx="740" cy="540" rx="34" ry="46" fill="#ffd07a" opacity=".55"/><rect x="704" y="488" width="72" height="9" rx="4" fill="#2b1a1a"/><rect x="704" y="584" width="72" height="9" rx="4" fill="#2b1a1a"/><g fill="#ffdf9e" opacity=".5"><rect x="250" y="470" width="26" height="86" rx="4"/><rect x="160" y="520" width="26" height="86" rx="4"/><rect x="1000" y="470" width="26" height="86" rx="4"/><rect x="1080" y="520" width="26" height="86" rx="4"/></g><rect x="0" y="800" width="1200" height="100" fill="#0a0612" /><g fill="#ffcf6e" opacity=".14"><ellipse cx="330" cy="850" rx="70" ry="16"/><ellipse cx="470" cy="850" rx="70" ry="16"/><ellipse cx="740" cy="850" rx="70" ry="16"/><ellipse cx="870" cy="850" rx="70" ry="16"/></g></svg>