<svg xmlns="http://www.w3.org/2000/svg" viewBox="0 0 1200 900" width="1200" height="900"><defs><linearGradient id="sky" x1="0" y1="0" x2="0" y2="1"><stop offset="0" stop-color="#2a1230"/><stop offset="1" stop-color="#5c2340"/></linearGradient><radialGradient id="warm" cx="0.5" cy="0.5" r="0.7"><stop offset="0" stop-color="#ffb75e99"/><stop offset="1" stop-color="#ffb75e00"/></radialGradient></defs><rect width="1200" height="900" fill="url(#sky)"/><circle cx="600" cy="420" r="420" fill="url(#warm)"/><rect x="0" y="560" width="1200" height="340" fill="#241128" /><path d="M100 300 h280 l-24 60 h-232 Z" fill="#e8483f"/><rect x="130" y="360" width="200" height="200" fill="#331a35" /><rect x="148" y="392" width="164" height="86" rx="8" fill="#ffdca8" opacity=".85"/><circle cx="176" cy="436" r="12" fill="#e8483f"/><circle cx="210" cy="436" r="12" fill="#e8483f"/><circle cx="244" cy="436" r="12" fill="#e8483f"/><circle cx="278" cy="436" r="12" fill="#e8483f"/><rect x="130" y="560" width="200" height="14" fill="#1a0d1d" /><path d="M400 300 h280 l-24 60 h-232 Z" fill="#2fb8a8"/><rect x="430" y="360" width="200" height="200" fill="#331a35" /><rect x="448" y="392" width="164" height="86" rx="8" fill="#ffdca8" opacity=".85"/><circle cx="476" cy="436" r="12" fill="#2fb8a8"/><circle cx="510" cy="436" r="12" fill="#2fb8a8"/><circle cx="544" cy="436" r="12" fill="#2fb8a8"/><circle cx="578" cy="436" r="12" fill="#2fb8a8"/><rect x="430" y="560" width="200" height="14" fill="#1a0d1d" /><path d="M700 300 h280 l-24 60 h-232 Z" fill="#f5a623"/><rect x="730" y="360" width="200" height="200" fill="#331a35" /><rect x="748" y="392" width="164" height="86" rx="8" fill="#ffdca8" opacity=".85"/><circle cx="776" cy="436" r="12" fill="#f5a623"/><circle cx="810" cy="436" r="12" fill="#f5a623"/><circle cx="844" cy="436" r="12" fill="#f5a623"/><circle cx="878" cy="436" r="12" fill="#f5a623"/><rect x="730" y="560" width="200" height="14" fill="#1a0d1d" /><path d="M980 300 h280 l-24 60 h-232 Z" fill="#7c5cd6"/><rect x="1010" y="360" width="200" height="200" fill="#331a35" /><rect x="1028" y="392" width="164" height="86" rx="8" fill="#ffdca8" opacity=".85"/><circle cx="1056" cy="436" r="12" fill="#7c5cd6"/><circle cx="1090" cy="436" r="12" fill="#7c5cd6"/><circle cx="1124" cy="436" r="12" fill="#7c5cd6"/><circle cx="1158" cy="436" r="12" fill="#7c5cd6"/><rect x="1010" y="560" width="200" height="14" fill="#1a0d1d" /><g fill="#ffd07a"><circle cx="100" cy="240" r="9" opacity=".9"/><circle cx="260" cy="210" r="9" opacity=".9"/><circle cx="420" cy="238" r="9" opacity=".9"/><circle cx="580" cy="206" r="9" opacity=".9"/><circle cx="740" cy="240" r="9" opacity=".9"/><circle cx="900" cy="210" r="9" opacity=".9"/><circle cx="1060" cy="238" r="9" opacity=".9"/></g><path d="M60 240 Q600 170 1140 240" stroke="#ffd07a" stroke-width="3" fill="none" opacity=".6"/><rect x="0" y="820" width="1200" height="80" fill="#170a1a" /></svg>